<?xml version="1.0" encoding="UTF-8" standalone="no"?>
<!DOCTYPE svg PUBLIC "-//W3C//DTD SVG 1.1//EN"
 "http://www.w3.org/Graphics/SVG/1.1/DTD/svg11.dtd">
<!-- Generated by graphviz version 12.2.1 (20241206.2353)
 -->
<!-- Pages: 1 -->
<svg width="329pt" height="340pt"
 viewBox="0.00 0.00 329.25 340.00" xmlns="http://www.w3.org/2000/svg" xmlns:xlink="http://www.w3.org/1999/xlink">
<g id="graph0" class="graph" transform="scale(1 1) rotate(0) translate(4 336)">
<polygon fill="white" stroke="none" points="-4,4 -4,-336 325.25,-336 325.25,4 -4,4"/>
<!-- 2 -->
<g id="node1" class="node">
<title>2</title>
<polygon fill="none" stroke="black" points="282.62,-332 113.62,-332 113.62,-276 282.62,-276 282.62,-332"/>
<text text-anchor="start" x="121.62" y="-317.6" font-family="Times,serif" font-size="12.00">github.com/fleetdm/fleet/v4/cmd</text>
<text text-anchor="start" x="178.62" y="-296.1" font-family="Times,serif" font-size="22.00">fleet</text>
<text text-anchor="start" x="176.38" y="-281.7" font-family="Times,serif" font-size="14.00">build 0s</text>
</g>
<!-- 65 -->
<g id="node2" class="node">
<title>65</title>
<polygon fill="none" stroke="black" points="246.25,-240 0,-240 0,-184 246.25,-184 246.25,-240"/>
<text text-anchor="start" x="8" y="-225.6" font-family="Times,serif" font-size="12.00">github.com/fleetdm/fleet/v4/server/vulnerabilities</text>
<text text-anchor="start" x="47.75" y="-204.1" font-family="Times,serif" font-size="22.00">goval_dictionary</text>
<text text-anchor="start" x="80.38" y="-189.7" font-family="Times,serif" font-size="14.00">build 35.994ms</text>
</g>
<!-- 2&#45;&gt;65 -->
<g id="edge1" class="edge">
<title>2&#45;&gt;65</title>
<path fill="none" stroke="black" d="M175.22,-275.51C168.24,-267.13 160.46,-257.8 153.09,-248.95"/>
<polygon fill="black" stroke="black" points="155.95,-246.93 146.86,-241.49 150.58,-251.41 155.95,-246.93"/>
</g>
<!-- 68 -->
<g id="node3" class="node">
<title>68</title>
<polygon fill="none" stroke="black" points="321.25,-148 75,-148 75,-92 321.25,-92 321.25,-148"/>
<text text-anchor="start" x="83" y="-133.6" font-family="Times,serif" font-size="12.00">github.com/fleetdm/fleet/v4/server/vulnerabilities</text>
<text text-anchor="start" x="181.25" y="-112.1" font-family="Times,serif" font-size="22.00">nvd</text>
<text text-anchor="start" x="155.38" y="-97.7" font-family="Times,serif" font-size="14.00">build 84.708ms</text>
</g>
<!-- 2&#45;&gt;68 -->
<g id="edge2" class="edge">
<title>2&#45;&gt;68</title>
<path fill="none" stroke="black" d="M230.82,-275.73C240.55,-265.63 249.98,-253.35 255.12,-240 264.07,-216.77 264.07,-207.23 255.12,-184 251.35,-174.2 245.26,-164.97 238.44,-156.76"/>
<polygon fill="black" stroke="black" points="241.12,-154.5 231.83,-149.4 235.91,-159.18 241.12,-154.5"/>
</g>
<!-- 65&#45;&gt;68 -->
<g id="edge3" class="edge">
<title>65&#45;&gt;68</title>
<path fill="none" stroke="black" d="M146.03,-183.51C153.01,-175.13 160.79,-165.8 168.16,-156.95"/>
<polygon fill="black" stroke="black" points="170.67,-159.41 174.39,-149.49 165.3,-154.93 170.67,-159.41"/>
</g>
<!-- 360 -->
<g id="node4" class="node">
<title>360</title>
<polygon fill="none" stroke="black" points="253.38,-56 142.88,-56 142.88,0 253.38,0 253.38,-56"/>
<text text-anchor="start" x="156.88" y="-41.6" font-family="Times,serif" font-size="12.00">github.com/mattn</text>
<text text-anchor="start" x="153.88" y="-20.1" font-family="Times,serif" font-size="22.00">go&#45;sqlite3</text>
<text text-anchor="start" x="150.88" y="-5.7" font-family="Times,serif" font-size="14.00">build 13.785501s</text>
</g>
<!-- 68&#45;&gt;360 -->
<g id="edge4" class="edge">
<title>68&#45;&gt;360</title>
<path fill="none" stroke="black" d="M198.12,-91.51C198.12,-84.01 198.12,-75.73 198.12,-67.73"/>
<polygon fill="black" stroke="black" points="201.63,-67.84 198.13,-57.84 194.63,-67.84 201.63,-67.84"/>
</g>
</g>
</svg>
