<?xml version="1.0" encoding="UTF-8"?>
<!-- Created with Inkscape (http://www.inkscape.org/) -->
<svg width="58.219mm" height="58.202mm" version="1.1" viewBox="0 0 58.219 58.202" xmlns="http://www.w3.org/2000/svg">
 <g stroke-width=".26458">
  <path d="m7.5963 14.823c3.954 0 7.1594-3.2053 7.1594-7.1594 0-3.954-3.2054-7.1594-7.1594-7.1594-3.954 0-7.1594 3.2053-7.1594 7.1594 0 3.954 3.2053 7.1594 7.1594 7.1594z" fill="#63c740"/>
  <path d="m29.075 14.823c3.9539 0 7.1594-3.2053 7.1594-7.1594 0-3.954-3.2054-7.1594-7.1594-7.1594-3.9541 0-7.1595 3.2053-7.1595 7.1594 0 3.954 3.2054 7.1594 7.1595 7.1594z" fill="#5cabdf"/>
  <path d="m50.552 14.823c3.9542 0 7.1594-3.2053 7.1594-7.1594 0-3.954-3.2052-7.1594-7.1594-7.1594-3.9539 0-7.1594 3.2053-7.1594 7.1594 0 3.954 3.2054 7.1594 7.1594 7.1594z" fill="#d66c7b"/>
  <path d="m7.5963 36.301c3.954 0 7.1594-3.2054 7.1594-7.1594 0-3.9541-3.2054-7.1595-7.1594-7.1595-3.954 0-7.1594 3.2054-7.1594 7.1595 0 3.9539 3.2053 7.1594 7.1594 7.1594z" fill="#c98def"/>
  <path d="m29.075 36.301c3.9539 0 7.1594-3.2054 7.1594-7.1594 0-3.9541-3.2054-7.1595-7.1594-7.1595-3.9541 0-7.1595 3.2054-7.1595 7.1595 0 3.9539 3.2054 7.1594 7.1595 7.1594z" fill="#faa669"/>
  <path d="m7.5963 57.779c3.954 0 7.1594-3.2052 7.1594-7.1594 0-3.9539-3.2054-7.1594-7.1594-7.1594-3.954 0-7.1594 3.2054-7.1594 7.1594 0 3.9542 3.2053 7.1594 7.1594 7.1594z" fill="#3aefc4"/>
 </g>
</svg>
